<svg width="144" height="144" viewBox="0 0 144 144" fill="none" xmlns="http://www.w3.org/2000/svg">
<rect width="144" height="144" fill="black"/>
<path d="M72.986 116.06L72.6412 117.623L72.5071 120.906L86.1329 114.509L99.7503 108.093L101.079 106.948C104.054 104.399 105.919 101.82 107.248 98.3738C107.937 96.5625 108.464 94.4979 110.819 84.4162C111.19 82.8627 111.794 80.2583 112.186 78.6076C112.559 76.9653 113.051 74.9176 113.252 74.0346C114.349 69.3381 114.402 66.4432 113.476 62.5799C113.02 60.755 112.67 59.9103 109.674 53.4849L95.7083 23.536L94.9883 23.8717C94.4484 24.1234 94.2744 24.3142 94.2551 24.6957C94.2382 24.9884 93.6207 27.7523 92.8868 30.8774C92.1444 33.9844 89.79 44.0661 87.6554 53.2565C83.5796 70.7363 83.1172 72.7049 81.0546 81.533C80.3603 84.508 78.9321 90.6082 77.8954 95.0576C76.8672 99.525 75.4185 105.722 74.6761 108.829C73.9422 111.954 73.1962 115.195 72.986 116.06Z" fill="white"/>
<path d="M72.4928 120.906L72.3587 117.623L72.6412 117.623L72.5071 120.906L72.4928 120.906Z" fill="white"/>
<path d="M72.0139 116.06L72.3587 117.623L72.4928 120.906L58.867 114.509L45.2495 108.093L43.9211 106.948C40.9463 104.399 39.0812 101.82 37.7521 98.3738C37.0629 96.5625 36.5356 94.4979 34.1812 84.4162C33.81 82.8627 33.2058 80.2583 32.8142 78.6076C32.4406 76.9654 31.9493 74.9176 31.7475 74.0347C30.6508 69.3381 30.5984 66.4432 31.5234 62.5799L63.9452 81.533C64.6396 84.5081 66.0678 90.6082 67.1045 95.0576C68.1327 99.525 69.5814 105.722 70.3238 108.829C71.0577 111.954 71.8037 115.195 72.0139 116.06Z" fill="white"/>
</svg>
